{
	"asset":{
		"generator":"Khronos glTF Blender I/O v3.6.27",
		"version":"2.0"
	},
	"scene":0,
	"scenes":[
		{
			"name":"Scene",
			"nodes":[
				7,
				11,
				13
			]
		}
	],
	"nodes":[
		{
			"mesh":0,
			"name":"Object_3"
		},
		{
			"mesh":1,
			"name":"Object_5"
		},
		{
			"mesh":2,
			"name":"Object_6"
		},
		{
			"mesh":3,
			"name":"Object_7"
		},
		{
			"mesh":4,
			"name":"Object_8",
			"scale":[
				1,
				0.8047302961349487,
				1
			]
		},
		{
			"children":[
				0,
				1,
				2,
				3,
				4
			],
			"name":"Object_2"
		},
		{
			"children":[
				5
			],
			"name":"Teeth.obj.cleaner.gles",
			"translation":[
				-0.26218101382255554,
				-0.31402701139450073,
				4.671014785766602
			]
		},
		{
			"children":[
				6
			],
			"name":"Sketchfab_model",
			"rotation":[
				-0.70710688829422,
				0,
				0,
				0.7071066498756409
			],
			"scale":[
				4.134925842285156,
				4.1349263191223145,
				4.1349263191223145
			],
			"translation":[
				0,
				-18.828227996826172,
				0
			]
		},
		{
			"name":"Box001",
			"rotation":[
				-0.70710688829422,
				0,
				0,
				0.7071066498756409
			],
			"translation":[
				0,
				-5.7220458984375e-06,
				0
			]
		},
		{
			"children":[
				8
			],
			"name":"RootNode",
			"translation":[
				0,
				-5.7220458984375e-06,
				0
			]
		},
		{
			"children":[
				9
			],
			"name":"8412f19a0b7e4e97bf37891f51ea7e44.fbx",
			"rotation":[
				0.70710688829422,
				0,
				0,
				0.7071066498756409
			],
			"translation":[
				-3.814697265625e-06,
				0,
				0
			]
		},
		{
			"children":[
				10
			],
			"name":"Sketchfab_model.001",
			"rotation":[
				-0.6757612824440002,
				-0.208198681473732,
				0.208198681473732,
				0.6757612824440002
			],
			"scale":[
				0.028135597705841064,
				0.028135597705841064,
				0.028135597705841064
			],
			"translation":[
				-1.9096989631652832,
				1.058198094367981,
				0
			]
		},
		{
			"mesh":5,
			"name":"Mesh_150"
		},
		{
			"children":[
				12
			],
			"mesh":6,
			"name":"Mesh_2",
			"rotation":[
				-0.70710688829422,
				0,
				0,
				0.7071066498756409
			],
			"translation":[
				0,
				2.420315742492676,
				0
			]
		}
	],
	"animations":[
		{
			"channels":[
				{
					"sampler":0,
					"target":{
						"node":13,
						"path":"translation"
					}
				},
				{
					"sampler":1,
					"target":{
						"node":13,
						"path":"rotation"
					}
				},
				{
					"sampler":2,
					"target":{
						"node":13,
						"path":"scale"
					}
				}
			],
			"name":"Mesh_2Action",
			"samplers":[
				{
					"input":26,
					"interpolation":"LINEAR",
					"output":27
				},
				{
					"input":26,
					"interpolation":"LINEAR",
					"output":28
				},
				{
					"input":29,
					"interpolation":"STEP",
					"output":30
				}
			]
		}
	],
	"materials":[
		{
			"doubleSided":true,
			"name":"Material.001",
			"pbrMetallicRoughness":{
				"baseColorFactor":[
					0.6738469004631042,
					0.06895595043897629,
					0.06895595043897629,
					1
				],
				"metallicFactor":0,
				"roughnessFactor":0.5
			}
		},
		{
			"doubleSided":true,
			"name":"Blanco",
			"pbrMetallicRoughness":{
				"metallicFactor":0,
				"roughnessFactor":0.5
			}
		},
		{
			"name":"Material.002",
			"pbrMetallicRoughness":{
				"baseColorFactor":[
					0.18429288268089294,
					0.3593306541442871,
					0.800000011920929,
					1
				],
				"metallicFactor":0,
				"roughnessFactor":0.5
			}
		}
	],
	"meshes":[
		{
			"name":"Object_0",
			"primitives":[
				{
					"attributes":{
						"POSITION":0,
						"NORMAL":1,
						"TEXCOORD_0":2
					},
					"indices":3,
					"material":0
				}
			]
		},
		{
			"name":"Object_2",
			"primitives":[
				{
					"attributes":{
						"POSITION":4,
						"NORMAL":5,
						"TEXCOORD_0":6
					},
					"indices":7,
					"material":0
				}
			]
		},
		{
			"name":"Object_3",
			"primitives":[
				{
					"attributes":{
						"POSITION":8,
						"NORMAL":9,
						"TEXCOORD_0":10
					},
					"indices":11,
					"material":1
				}
			]
		},
		{
			"name":"Object_4",
			"primitives":[
				{
					"attributes":{
						"POSITION":12,
						"NORMAL":13,
						"TEXCOORD_0":14
					},
					"indices":15,
					"material":1
				}
			]
		},
		{
			"name":"Object_5",
			"primitives":[
				{
					"attributes":{
						"POSITION":16,
						"NORMAL":17,
						"TEXCOORD_0":18
					},
					"indices":19,
					"material":0
				}
			]
		},
		{
			"name":"Mesh_150",
			"primitives":[
				{
					"attributes":{
						"POSITION":20,
						"NORMAL":21
					},
					"indices":22,
					"material":1
				}
			]
		},
		{
			"name":"Mesh_2",
			"primitives":[
				{
					"attributes":{
						"POSITION":23,
						"NORMAL":24
					},
					"indices":25,
					"material":2
				}
			]
		}
	],
	"accessors":[
		{
			"bufferView":0,
			"componentType":5126,
			"count":3109,
			"max":[
				0.5168200135231018,
				0.47823289036750793,
				0.19596529006958008
			],
			"min":[
				0.006870001554489136,
				0.009418010711669922,
				-0.029855545610189438
			],
			"type":"VEC3"
		},
		{
			"bufferView":1,
			"componentType":5126,
			"count":3109,
			"type":"VEC3"
		},
		{
			"bufferView":2,
			"componentType":5126,
			"count":3109,
			"type":"VEC2"
		},
		{
			"bufferView":3,
			"componentType":5123,
			"count":16530,
			"type":"SCALAR"
		},
		{
			"bufferView":4,
			"componentType":5126,
			"count":3231,
			"max":[
				0.5235720276832581,
				0.47638261318206787,
				0.4340519905090332
			],
			"min":[
				0.00012001395225524902,
				0.0026760101318359375,
				0.27538013458251953
			],
			"type":"VEC3"
		},
		{
			"bufferView":5,
			"componentType":5126,
			"count":3231,
			"type":"VEC3"
		},
		{
			"bufferView":6,
			"componentType":5126,
			"count":3231,
			"type":"VEC2"
		},
		{
			"bufferView":7,
			"componentType":5123,
			"count":17094,
			"type":"SCALAR"
		},
		{
			"bufferView":8,
			"componentType":5126,
			"count":3288,
			"max":[
				0.5147570371627808,
				0.45089301466941833,
				0.2376394271850586
			],
			"min":[
				0.0089150071144104,
				0,
				0.08115720748901367
			],
			"type":"VEC3"
		},
		{
			"bufferView":9,
			"componentType":5126,
			"count":3288,
			"type":"VEC3"
		},
		{
			"bufferView":10,
			"componentType":5126,
			"count":3288,
			"type":"VEC2"
		},
		{
			"bufferView":11,
			"componentType":5123,
			"count":16800,
			"type":"SCALAR"
		},
		{
			"bufferView":12,
			"componentType":5126,
			"count":3324,
			"max":[
				0.5236940383911133,
				0.4650590121746063,
				0.33561229705810547
			],
			"min":[
				0,
				0.0004210174083709717,
				0.23180532455444336
			],
			"type":"VEC3"
		},
		{
			"bufferView":13,
			"componentType":5126,
			"count":3324,
			"type":"VEC3"
		},
		{
			"bufferView":14,
			"componentType":5126,
			"count":3324,
			"type":"VEC2"
		},
		{
			"bufferView":15,
			"componentType":5123,
			"count":16896,
			"type":"SCALAR"
		},
		{
			"bufferView":16,
			"componentType":5126,
			"count":1390,
			"max":[
				0.4352530241012573,
				0.5563306212425232,
				0.1962476372718811
			],
			"min":[
				0.08788901567459106,
				0.04031601548194885,
				0.06688582897186279
			],
			"type":"VEC3"
		},
		{
			"bufferView":17,
			"componentType":5126,
			"count":1390,
			"type":"VEC3"
		},
		{
			"bufferView":18,
			"componentType":5126,
			"count":1390,
			"type":"VEC2"
		},
		{
			"bufferView":19,
			"componentType":5123,
			"count":8100,
			"type":"SCALAR"
		},
		{
			"bufferView":20,
			"componentType":5126,
			"count":23452,
			"max":[
				-1.6354484558105469,
				0.13471785187721252,
				0.5146124362945557
			],
			"min":[
				-2.558363914489746,
				-0.13401228189468384,
				0.15732888877391815
			],
			"type":"VEC3"
		},
		{
			"bufferView":21,
			"componentType":5126,
			"count":23452,
			"type":"VEC3"
		},
		{
			"bufferView":22,
			"componentType":5123,
			"count":32340,
			"type":"SCALAR"
		},
		{
			"bufferView":23,
			"componentType":5126,
			"count":222114,
			"max":[
				2.59639835357666,
				0.17498651146888733,
				0.39363980293273926
			],
			"min":[
				-2.595121383666992,
				-0.17543667554855347,
				0.0012086235219612718
			],
			"type":"VEC3"
		},
		{
			"bufferView":24,
			"componentType":5126,
			"count":222114,
			"type":"VEC3"
		},
		{
			"bufferView":25,
			"componentType":5125,
			"count":335184,
			"type":"SCALAR"
		},
		{
			"bufferView":26,
			"componentType":5126,
			"count":316,
			"max":[
				14.375
			],
			"min":[
				1.25
			],
			"type":"SCALAR"
		},
		{
			"bufferView":27,
			"componentType":5126,
			"count":316,
			"type":"VEC3"
		},
		{
			"bufferView":28,
			"componentType":5126,
			"count":316,
			"type":"VEC4"
		},
		{
			"bufferView":29,
			"componentType":5126,
			"count":2,
			"max":[
				14.375
			],
			"min":[
				1.25
			],
			"type":"SCALAR"
		},
		{
			"bufferView":30,
			"componentType":5126,
			"count":2,
			"type":"VEC3"
		}
	],
	"bufferViews":[
		{
			"buffer":0,
			"byteLength":37308,
			"byteOffset":0,
			"target":34962
		},
		{
			"buffer":0,
			"byteLength":37308,
			"byteOffset":37308,
			"target":34962
		},
		{
			"buffer":0,
			"byteLength":24872,
			"byteOffset":74616,
			"target":34962
		},
		{
			"buffer":0,
			"byteLength":33060,
			"byteOffset":99488,
			"target":34963
		},
		{
			"buffer":0,
			"byteLength":38772,
			"byteOffset":132548,
			"target":34962
		},
		{
			"buffer":0,
			"byteLength":38772,
			"byteOffset":171320,
			"target":34962
		},
		{
			"buffer":0,
			"byteLength":25848,
			"byteOffset":210092,
			"target":34962
		},
		{
			"buffer":0,
			"byteLength":34188,
			"byteOffset":235940,
			"target":34963
		},
		{
			"buffer":0,
			"byteLength":39456,
			"byteOffset":270128,
			"target":34962
		},
		{
			"buffer":0,
			"byteLength":39456,
			"byteOffset":309584,
			"target":34962
		},
		{
			"buffer":0,
			"byteLength":26304,
			"byteOffset":349040,
			"target":34962
		},
		{
			"buffer":0,
			"byteLength":33600,
			"byteOffset":375344,
			"target":34963
		},
		{
			"buffer":0,
			"byteLength":39888,
			"byteOffset":408944,
			"target":34962
		},
		{
			"buffer":0,
			"byteLength":39888,
			"byteOffset":448832,
			"target":34962
		},
		{
			"buffer":0,
			"byteLength":26592,
			"byteOffset":488720,
			"target":34962
		},
		{
			"buffer":0,
			"byteLength":33792,
			"byteOffset":515312,
			"target":34963
		},
		{
			"buffer":0,
			"byteLength":16680,
			"byteOffset":549104,
			"target":34962
		},
		{
			"buffer":0,
			"byteLength":16680,
			"byteOffset":565784,
			"target":34962
		},
		{
			"buffer":0,
			"byteLength":11120,
			"byteOffset":582464,
			"target":34962
		},
		{
			"buffer":0,
			"byteLength":16200,
			"byteOffset":593584,
			"target":34963
		},
		{
			"buffer":0,
			"byteLength":281424,
			"byteOffset":609784,
			"target":34962
		},
		{
			"buffer":0,
			"byteLength":281424,
			"byteOffset":891208,
			"target":34962
		},
		{
			"buffer":0,
			"byteLength":64680,
			"byteOffset":1172632,
			"target":34963
		},
		{
			"buffer":0,
			"byteLength":2665368,
			"byteOffset":1237312,
			"target":34962
		},
		{
			"buffer":0,
			"byteLength":2665368,
			"byteOffset":3902680,
			"target":34962
		},
		{
			"buffer":0,
			"byteLength":1340736,
			"byteOffset":6568048,
			"target":34963
		},
		{
			"buffer":0,
			"byteLength":1264,
			"byteOffset":7908784
		},
		{
			"buffer":0,
			"byteLength":3792,
			"byteOffset":7910048
		},
		{
			"buffer":0,
			"byteLength":5056,
			"byteOffset":7913840
		},
		{
			"buffer":0,
			"byteLength":8,
			"byteOffset":7918896
		},
		{
			"buffer":0,
			"byteLength":24,
			"byteOffset":7918904
		}
	],
	"buffers":[
		{
			"byteLength":7918928,
			"uri":"animation.bin"
		}
	]
}
